<?xml version="1.0" encoding="UTF-8" standalone="no"?>
<!-- Created with Inkscape (http://www.inkscape.org/) -->

<svg
   width="209.00465mm"
   height="172.9187mm"
   viewBox="0 0 209.00465 172.9187"
   version="1.1"
   id="svg1"
   xml:space="preserve"
   xmlns="http://www.w3.org/2000/svg"
   xmlns:svg="http://www.w3.org/2000/svg"><defs
     id="defs1"><filter
       style="color-interpolation-filters:sRGB"
       id="filter3"
       x="0"
       y="0"
       width="1"
       height="1"><feComposite
         in2="SourceGraphic"
         operator="arithmetic"
         k1="0"
         k2="1"
         result="composite1"
         id="feComposite2"
         k3="0"
         k4="0" /><feColorMatrix
         in="composite1"
         values="1"
         type="saturate"
         result="colormatrix1"
         id="feColorMatrix2" /><feFlood
         flood-opacity="1"
         flood-color="rgb(77,171,247)"
         result="flood1"
         id="feFlood2" /><feBlend
         in="flood1"
         in2="colormatrix1"
         mode="multiply"
         result="blend1"
         id="feBlend2" /><feBlend
         in2="blend1"
         mode="screen"
         result="blend2"
         id="feBlend3" /><feColorMatrix
         in="blend2"
         values="1"
         type="saturate"
         result="colormatrix2"
         id="feColorMatrix3" /><feComposite
         in="colormatrix2"
         in2="SourceGraphic"
         operator="in"
         result="fbSourceGraphic"
         id="feComposite3" /><feColorMatrix
         result="fbSourceGraphicAlpha"
         in="fbSourceGraphic"
         values="0 0 0 -1 0 0 0 0 -1 0 0 0 0 -1 0 0 0 0 1 0"
         id="feColorMatrix4" /><feComposite
         id="feComposite4"
         in2="fbSourceGraphic"
         operator="arithmetic"
         k1="0"
         k2="1"
         result="composite1"
         in="fbSourceGraphic"
         k3="0"
         k4="0" /><feColorMatrix
         id="feColorMatrix5"
         in="composite1"
         values="1"
         type="saturate"
         result="colormatrix1" /><feFlood
         id="feFlood5"
         flood-opacity="1"
         flood-color="rgb(77,171,247)"
         result="flood1" /><feBlend
         id="feBlend5"
         in="flood1"
         in2="colormatrix1"
         mode="multiply"
         result="blend1" /><feBlend
         id="feBlend6"
         in2="blend1"
         mode="screen"
         result="blend2" /><feColorMatrix
         id="feColorMatrix6"
         in="blend2"
         values="1"
         type="saturate"
         result="colormatrix2" /><feComposite
         id="feComposite6"
         in="colormatrix2"
         in2="fbSourceGraphic"
         operator="in"
         result="composite2" /></filter></defs><g
     id="layer1"
     transform="translate(-1.2079205,-52.327313)"><path
       style="fill:#000080;stroke-width:3.40522;filter:url(#filter3)"
       d="m 112.65658,223.74591 c 5.70604,-2.68338 5.95764,-3.9345 6.54597,-32.55543 0.4827,-23.4823 0.54647,-24.26228 0.71456,-8.74008 0.31451,29.04216 3.29665,38.03345 13.78149,41.55146 3.31755,1.11317 2.58254,1.20081 -10.36038,1.23517 -13.87134,0.0371 -13.91723,0.0297 -10.68164,-1.49112 z m 74.05703,0.55587 c 1.92048,-0.52204 3.59815,-1.83554 4.6437,-3.63572 1.48839,-2.56248 1.6568,-6.54828 1.85502,-43.89672 l 0.218,-41.07831 -16.21454,40.9825 c -8.91798,22.54041 -16.43445,41.18954 -16.70326,41.44253 -0.68071,0.6406 0.5695,3.02957 -17.42136,-33.28998 l -16.35723,-33.02153 2.01709,-4.32165 c 1.10945,-2.37686 2.22611,-4.33057 2.48153,-4.34152 0.25555,-0.01 7.74763,14.37431 16.64937,31.96717 l 16.18499,31.98703 14.91534,-37.66885 14.91534,-37.66876 8.83584,0.0344 c 8.4772,0.033 8.71189,0.0848 5.7826,1.28253 -5.68056,2.32263 -5.77581,3.07574 -5.71749,45.19605 0.0582,42.02486 0.172,42.96083 5.52009,45.47512 3.23375,1.5202 3.17837,1.52774 -10.68061,1.45068 -10.27873,-0.0569 -13.14289,-0.29167 -10.92445,-0.89482 z M 76.729968,208.67065 C 86.855383,187.80367 151.21815,57.397433 152.65135,54.845332 c 0.94479,-1.682479 1.73632,-2.789449 1.75889,-2.459969 0.0667,0.974537 -78.909431,161.011147 -79.928506,161.966337 -0.512883,0.48069 0.498837,-2.07581 2.248234,-5.68105 z m -59.78006,-1.36404 c -0.661605,-0.7502 -1.383146,-3.40924 -1.603428,-5.90897 -0.483679,-5.48881 1.624313,-8.67766 5.736377,-8.67766 2.61573,0 6.053229,2.33012 4.958006,3.36078 -0.328378,0.30885 -1.27371,-0.0748 -2.100737,-0.85321 -1.895027,-1.78334 -3.619326,-1.79643 -5.484036,-0.0414 -1.664371,1.56627 -1.957531,7.47975 -0.498032,10.0461 1.070521,1.8824 4.57454,2.24934 6.267325,0.65634 1.549363,-1.45807 2.573283,-0.16513 1.148604,1.45011 -1.530284,1.73521 -6.883551,1.71496 -8.424079,-0.033 z m 14.494977,-0.57846 c -2.014595,-2.70671 -1.879926,-9.59545 0.235642,-12.05408 1.823431,-2.11912 5.841028,-2.60276 7.948453,-0.95682 2.750859,2.14844 2.381868,12.46985 -0.507433,14.19383 -2.350935,1.40272 -6.192794,0.8107 -7.676672,-1.18293 z m 8.033987,-2.86456 c 1.429143,-4.80799 -0.784849,-10.05111 -4.244261,-10.05111 -2.887682,0 -4.501015,7.75433 -2.386802,11.47193 1.560973,2.74479 5.653505,1.8679 6.631063,-1.42082 z m 5.380192,-3.05901 v -7.86608 l 3.947176,0.0143 c 2.17095,0.008 4.477238,0.33 5.125084,0.71696 1.722144,1.02864 3.005083,6.00094 2.369289,9.18265 -0.856664,4.287 -2.806601,5.81915 -7.406129,5.81915 h -4.03542 z m 9.17444,3.1304 c 0.926096,-1.8269 1.059703,-3.43894 0.470834,-5.68109 -0.740971,-2.82125 -1.166136,-3.15721 -4.304976,-3.40165 l -3.482803,-0.2712 v 6.2262 6.22618 l 3.011971,-0.27384 c 2.266225,-0.20612 3.332112,-0.90543 4.304974,-2.82452 z m 5.685522,-3.1304 v -7.86608 h 6.091669 c 3.824628,0 5.878059,0.32538 5.517672,0.87398 -0.315692,0.48073 -2.639013,0.87402 -5.162913,0.87402 -4.275704,0 -4.588923,0.14927 -4.588923,2.18502 0,2.00697 0.340522,2.18501 4.179346,2.18501 2.298661,0 4.179366,0.39332 4.179366,0.87401 0,0.48071 -1.880705,0.87404 -4.179366,0.87404 -4.157244,0 -4.179346,0.0159 -4.179346,3.05901 v 3.05901 h 5.108116 c 2.809454,0 5.108095,0.39331 5.108095,0.87401 0,0.49302 -2.631447,0.87404 -6.036865,0.87404 h -6.036851 z m -54.0995533,4.3518 c -2.4263533,-1.43388 -4.4115522,-2.94084 -4.4115522,-3.3488 0,-0.40796 2.0896819,-1.96419 4.6437395,-3.45831 2.9526847,-1.72728 4.643737,-2.3024 4.643737,-1.57928 0,0.62549 -1.4627766,1.87862 -3.2506146,2.78465 -1.7878417,0.90609 -3.2506182,1.91243 -3.2506182,2.23634 0,0.32408 1.4627765,1.40111 3.2506182,2.39378 1.787838,0.99268 3.2506146,2.21146 3.2506146,2.70837 0,1.18882 0.187941,1.25572 -4.8759243,-1.73675 z m 84.7482343,1.85499 c 0,-0.43191 1.707259,-1.73407 3.79389,-2.89375 l 3.79393,-2.10849 -3.79393,-2.36272 c -2.086631,-1.29946 -3.79389,-2.77362 -3.79389,-3.27589 0,-0.50221 0.52241,-0.62265 1.160935,-0.26757 5.804157,3.22752 8.126541,4.88831 8.126541,5.81151 0,0.59836 -1.897746,2.16664 -4.217214,3.48507 -4.624898,2.62886 -5.070262,2.77045 -5.070262,1.6119 z M 45.936523,150.90994 C 9.0971084,59.410877 11.267,64.482268 7.5668733,61.234388 6.3675761,60.181672 4.341705,58.928363 3.0649403,58.449238 1.3980649,57.823757 5.4570567,57.589524 17.461006,57.618514 c 12.167248,0.02989 15.591261,0.248088 12.579807,0.803651 -2.275711,0.419789 -4.992297,1.568056 -6.036859,2.551717 -3.810406,3.588227 -2.735431,7.473494 12.526641,45.274778 8.452524,20.93528 14.501743,34.76831 14.906026,34.08628 0.374226,-0.63136 4.067026,-9.88251 8.206223,-20.55811 L 67.16865,100.36663 60.319236,83.727725 C 52.756237,65.355358 49.905876,60.551728 45.496259,58.746866 c -2.615006,-1.070261 0.01054,-1.211087 22.581511,-1.211087 22.037844,0 25.152121,0.159172 22.708254,1.160939 -1.557748,0.638537 -3.929215,2.387752 -5.269906,3.887184 -2.177772,2.435583 -10.815391,21.66758 -12.400034,27.609186 -0.464928,1.743284 1.638652,7.944678 8.478431,24.994592 l 9.096791,22.67611 -2.162318,4.34455 c -1.189281,2.38948 -2.41143,4.195 -2.715869,4.01219 -0.304439,-0.18258 -4.314962,-9.79791 -8.91226,-21.36688 -4.597302,-11.56902 -8.610426,-21.04113 -8.918062,-21.04921 -0.307636,-0.008 -4.84805,10.70283 -10.089798,23.80199 -5.241756,13.09919 -9.885279,24.17571 -10.31894,24.61455 -0.456321,0.46172 -1.146151,-0.0907 -1.637536,-1.31104 z M 74.996855,79.333688 c 3.985501,-11.601733 4.214235,-15.838693 1.017476,-18.847051 -1.443401,-1.35832 -3.339624,-2.145272 -5.169179,-2.145272 -6.797279,0 -9.110796,3.70011 -7.038483,11.256993 1.394531,5.085298 6.963419,19.333254 7.556481,19.333254 0.185,0 1.820283,-4.31906 3.633705,-9.597924 z m 33.045505,22.271052 c 0,-0.48069 0.40514,-1.46397 0.90031,-2.18502 0.49519,-0.721061 0.90027,-0.917704 0.90027,-0.437014 0,0.4807 -0.40508,1.463944 -0.90027,2.185004 -0.49517,0.72108 -0.90031,0.91774 -0.90031,0.43703 z m 1.8701,-4.08587 c -0.0214,-0.324392 1.83961,-5.677082 4.13821,-11.894875 5.1165,-13.840353 5.86372,-18.128462 3.81028,-21.865393 -1.69123,-3.0777 -4.13395,-4.578299 -8.91828,-5.478539 -1.96529,-0.369816 1.63359,-0.651434 9.10144,-0.712209 9.77073,-0.0796 12.19686,0.131204 11.60934,1.008576 -0.40847,0.609996 -1.87036,2.674849 -3.24858,4.588557 -1.37821,1.913692 -4.80609,9.065459 -7.61749,15.892785 -4.70588,11.428105 -8.77527,19.892961 -8.87492,18.461098 z"
       id="path1" /></g></svg>
